<svg width="137" height="56" viewBox="0 0 127 56" fill="none" xmlns="http://www.w3.org/2000/svg">
  <path d="M115.334 21.4981C114.479 21.2011 113.617 21.2011 113.617 21.2011C113.541 21.2011 113.468 21.2011 113.392 21.2072C112.323 21.2496 110.858 21.6496 109.604 23.2252L109.57 23.2646L109.372 23.5312C109.269 23.6797 109.11 23.9009 108.906 24.1797C108.367 23.4494 107.588 22.7343 106.461 22.1405C105.941 21.8647 105.405 21.6466 104.875 21.4617C104.893 21.1375 104.893 20.8345 104.881 20.5618C104.717 16.8288 102.077 14.223 98.447 14.223C98.2978 14.223 98.1456 14.226 98.0177 14.2351C93.6056 14.4714 89.6106 16.5379 87.2264 19.3952C86.1333 18.9832 84.9488 18.7559 83.7308 18.7559C83.5786 18.7559 83.4264 18.7589 83.2711 18.765L82.9087 18.7953C81.2614 19.0013 79.6598 19.3983 78.1404 19.977C78.7889 19.0407 79.4192 18.1863 80.0221 17.4439C80.083 17.3682 80.1531 17.2863 80.2292 17.1954C81.3497 15.8622 83.9775 12.7352 83.0001 8.79013C82.0805 5.08439 78.2378 2.18465 74.2489 2.18465C73.4664 2.18465 72.693 2.29373 71.95 2.51189C69.8551 3.12396 68.0555 4.56929 66.8832 6.58729L66.8437 6.66001C66.5848 7.12664 63.2933 13.0564 59.8403 20.0952C58.2661 18.1863 55.8119 17.0652 52.84 17.0652C52.6786 17.0652 52.5142 17.0682 52.3254 17.0773C52.2036 17.0833 52.0818 17.0955 51.957 17.1045C52.8857 16.1168 53.8022 15.2077 54.7461 14.4018C56.4878 12.917 57.3069 11.1142 57.1821 9.05071C56.8837 3.44212 50.6446 -3.61883e-06 46.2873 -3.23791e-06C46.1381 -3.22486e-06 45.9889 0.00302682 45.8428 0.0121169C42.9592 0.136349 40.572 1.51804 39.351 3.74209C38.2426 5.37225 37.186 7.03877 36.166 8.69923C34.1624 5.07228 29.0469 3.51484 26.0964 3.51484C25.9685 3.51484 25.8437 3.51484 25.7493 3.5209C21.8457 3.66028 18.7672 5.95705 18.0882 9.23555L18.0456 9.46583C17.1626 15.2168 15.4269 20.4679 13.7461 25.5462C11.8552 31.2578 9.90345 37.1664 9.30968 43.5113C9.22443 44.2022 9.23052 44.9021 9.32795 45.5929C9.8395 49.1623 11.5386 51.7348 14.3765 53.2408C15.698 53.9407 17.1443 54.2952 18.6728 54.2952C20.7556 54.2952 22.9723 53.6104 25.0824 52.3136C27.357 50.9167 29.1139 49.2047 30.5968 47.3898C31.288 51.6136 35.1551 54.6982 39.9691 54.6982C40.097 54.6982 40.2249 54.6982 40.3558 54.6921L40.4563 54.6861C42.5086 54.5709 44.503 53.5013 46.1868 52.2227C47.2373 52.759 48.4492 53.0499 49.7738 53.0499C49.8499 53.0499 49.926 53.0499 50.0052 53.0499L50.1057 53.0499C51.8382 52.965 53.6073 52.3529 55.3003 51.2833C56.8806 52.8984 58.8873 53.9861 61.1405 53.9861C61.2349 53.9861 61.3293 53.9861 61.4206 53.9801L61.5577 53.974C63.2171 53.8558 64.7853 53.165 65.9911 52.0196C66.1342 51.8924 66.2803 51.7591 66.4265 51.6197C68.0434 53.0377 70.1992 53.8165 72.76 53.8165C72.964 53.8165 73.171 53.8104 73.372 53.8013C75.8627 53.6862 79.7877 52.4681 85.7222 43.7113C86.453 43.6174 87.1777 43.4568 87.8902 43.2386C87.7684 44.2264 87.7167 45.1748 87.7623 46.0535C87.8506 48.0321 88.4079 49.6895 89.4157 50.9864C90.7433 52.6923 92.7408 53.6347 95.0397 53.6347C95.1676 53.6347 95.3016 53.6347 95.4508 53.6256C98.3191 53.4862 101.288 51.7954 104.802 48.2988C107.835 45.2808 110.091 42.0811 110.742 41.1236C114.107 36.315 117.195 31.6517 118.607 29.2368C118.766 28.849 119.545 26.8279 118.574 24.6099C117.709 22.6313 115.986 21.7253 115.337 21.4981L115.334 21.4981Z" fill="#F40C0C"/>
  <path d="M43.8058 19.4709C44.5884 18.5165 45.3862 17.5772 46.2022 16.656C47.9469 14.6835 49.7556 12.6594 51.7622 10.9474C52.3865 10.4142 52.6544 9.96874 52.6118 9.30213C52.4778 6.50237 48.5468 4.41165 46.0469 4.54497C44.9294 4.59042 43.7693 4.99039 43.2791 6.05696C41.0319 9.33849 39.0101 12.7776 36.97 16.1864C34.4214 20.4405 31.9062 24.7129 29.3333 28.9549C28.1792 30.8548 27.0161 32.7485 25.8194 34.6211C25.2927 35.4453 24.708 36.227 24.2239 37.0785C23.7671 37.8845 23.3195 38.7389 22.5735 39.3237C22.3025 39.5358 21.5809 39.9206 21.5322 39.3177C21.4774 38.6389 21.9706 37.7057 22.1838 37.0573C22.4548 36.227 22.7227 35.3938 22.9937 34.5635C23.6819 32.4577 24.3853 30.3548 25.1221 28.2641C26.669 23.8766 28.2858 19.4224 30.5482 15.341C30.9045 14.6986 31.2759 13.829 31.8027 13.3048C32.2046 12.9048 32.4269 12.3716 32.4269 11.8383C32.293 9.48393 28.0483 7.97194 25.9047 8.05982C24.6532 8.10527 22.8689 8.63855 22.5553 10.1475C20.5913 22.9494 14.8729 32.7698 13.8468 44.0172C13.8011 44.3293 13.8011 44.6384 13.8468 44.9505C13.865 45.0868 14.1847 47.123 15.2444 48.2623C16.4745 49.5864 18.5451 49.5289 19.2332 49.5107C21.9371 49.438 25.113 46.9533 36.0443 30.1579C36.3123 29.7458 39.7835 24.3856 43.8119 19.4709L43.8058 19.4709Z" fill="white"/>
  <path d="M113.591 25.7488C113.411 25.7488 113.323 25.8821 113.143 26.1033C112.159 27.5244 106.846 34.4601 105.281 36.3266C103.092 38.9476 100.144 42.1503 99.5626 42.6382C99.2063 43.0836 98.7587 43.3502 98.2228 43.4836C97.8665 43.4836 97.5529 43.2169 97.5529 42.5958C97.3733 38.9506 103.003 31.9725 104.833 29.4394C105.235 28.9061 105.458 28.2849 105.503 27.6607C105.415 25.573 101.17 25.4821 99.4743 24.4156C99.6082 24.4156 100.412 22.3703 100.324 20.7704C100.278 19.6584 99.7422 18.6827 98.2685 18.7706C93.3113 19.0372 89.3803 22.5036 89.5143 25.3488C89.6026 26.9032 90.7658 28.2819 93.5336 28.9485C93.4453 29.0818 93.3113 29.2151 93.1773 29.3939C92.3278 30.415 91.3017 31.5725 90.4978 32.5482C88.7561 34.6813 86.8348 35.5691 85.227 35.66L85.0931 35.66C87.2824 31.7482 88.7561 28.2364 88.7104 27.2153C88.6221 25.3943 86.4328 23.1702 83.4853 23.3035C82.2095 23.4641 80.8697 23.7792 79.5147 24.3247C71.9664 27.3668 69.1772 35.4267 68.5195 37.5265C68.3855 37.7053 68.2059 37.881 68.1176 38.0144C66.4642 40.2808 64.5002 42.3715 62.3566 44.1926C62.2226 44.2805 62.0886 44.3714 61.9546 44.3714C61.5984 44.3714 61.4187 44.0169 61.373 43.526C61.1934 40.3717 70.5292 21.9249 76.4698 14.5922C77.2036 13.6862 79.0428 11.7864 78.5678 9.88048C78.1141 8.0564 75.5685 6.19292 73.2361 6.87165C71.8293 7.28071 71.0772 8.4503 70.8397 8.85633C66.6316 16.4163 58.386 32.433 56.5225 40.1384C56.5316 40.102 56.5377 40.0687 56.5468 40.0324C56.4585 40.1899 54.4458 43.6987 52.762 43.929C52.5488 43.9593 52.0677 44.0229 51.6353 43.7593C51.1329 43.4533 50.932 42.8836 50.9228 42.6806C50.8345 40.5899 54.6742 34.2359 55.88 32.5906C56.1023 32.3239 56.2362 31.9694 56.2819 31.6573C56.2362 30.5029 54.0926 29.4363 51.5927 29.5696C50.9685 29.5696 50.2986 29.703 49.717 29.8817C48.9132 35.0358 43.2861 46.15 39.8454 46.3257C39.4434 46.3257 39.2638 45.9258 39.2212 45.2137C39.0415 41.3019 43.5541 29.0788 51.9947 28.6788C52.9325 28.6334 53.8703 28.7667 54.8082 28.9909C55.0304 29.0364 55.2558 29.0788 55.4324 29.0788C56.4159 29.0333 57.2624 27.3002 57.1741 25.4791C57.0858 23.4793 55.88 21.4795 52.5275 21.6128C42.4336 22.0582 34.6599 37.9689 35.0618 46.2379C35.1958 48.8164 37.653 50.2375 40.1986 50.1496C41.7606 50.0618 44.3519 48.2377 46.6752 45.4379C46.9431 47.5711 48.1489 48.5498 49.8906 48.5043C51.7663 48.4165 54.2235 46.9499 56.3672 44.0593C56.9488 46.5045 59.0467 49.5255 61.236 49.4376C61.8602 49.3921 62.4418 49.1255 62.8894 48.6831C64.3175 47.4378 66.1505 45.1289 67.7583 43.0382L67.7583 43.926C67.9379 47.2135 69.5 49.4376 73.163 49.2588C76.0679 49.1255 79.9958 44.3259 83.2143 39.2142C83.6163 39.3021 84.0639 39.3021 84.5084 39.2597C87.188 39.1264 90.2694 37.572 92.5044 34.2813C93.6219 32.636 94.7364 30.9029 95.6316 29.4363C96.1218 29.5242 96.6577 29.5242 97.1936 29.5696C95.1383 33.9268 92.1025 41.4807 92.3248 45.8379C92.4131 47.8832 93.2626 49.1709 95.2266 49.0831C98.8896 48.9043 104.562 42.1049 106.974 38.5476C109.848 34.445 112.799 30.0332 114.343 27.4759C114.547 27.1365 114.553 26.7123 114.349 26.3699C114.145 26.0275 113.892 25.7215 113.584 25.7457L113.591 25.7488ZM78.9301 34.6359C78.9758 35.3479 79.1524 36.057 79.5117 36.7236C77.5447 40.9898 73.973 46.0136 72.4109 46.1015C72.0547 46.1015 71.8293 45.9227 71.7867 45.4349C71.4731 39.1233 77.1915 30.7665 79.6487 30.6332L79.8284 30.6332C79.2042 31.8331 78.8905 33.2572 78.9362 34.6328L78.9301 34.6359Z" fill="white"/>
</svg>
